<svg width="512" height="512" viewBox="0 0 512 512" fill="none" xmlns="http://www.w3.org/2000/svg">
<path d="M439.381 2.08616e-07H72.6193C32.5128 2.08616e-07 0 32.5128 0 72.6193V439.381C0 479.487 32.5128 512 72.6193 512H439.381C479.487 512 512 479.487 512 439.381V72.6193C512 32.5128 479.487 2.08616e-07 439.381 2.08616e-07Z" fill="#161616"/>
<path d="M335.397 387.757H282.451V440.682H335.397V387.757Z" fill="white"/>
<path d="M396.477 158.513C388.972 140.965 378.431 125.587 364.896 112.421C351.34 99.2546 335.289 89.1469 316.809 82.0325C298.285 74.918 278.157 71.3392 256.379 71.3392C252.714 71.3392 249.091 71.4477 245.534 71.6646C227.683 72.6623 211.068 76.1978 195.625 82.2277C177.101 89.494 160.985 99.6884 147.299 112.811C133.612 125.955 123.006 141.247 115.523 158.708C107.974 176.169 104.244 195.343 104.244 216.274C104.244 237.205 107.974 256.097 115.523 273.645C123.006 291.214 133.612 306.592 147.299 319.758C160.985 332.903 177.145 343.075 195.82 350.32C203.195 353.183 210.808 355.461 218.682 357.174V308.783C218.031 308.545 217.402 308.306 216.773 308.046C204.518 303.252 194.02 296.333 185.127 287.331C176.277 278.352 169.315 267.788 164.239 255.75C159.098 243.669 156.582 230.503 156.582 216.274C156.582 202.045 159.098 188.554 164.239 176.602C169.315 164.716 176.277 154.218 185.127 145.216C194.02 136.215 204.518 129.339 216.773 124.502C225.796 120.923 235.383 118.667 245.534 117.756C249.07 117.431 252.692 117.258 256.379 117.258C270.608 117.258 283.709 119.665 295.661 124.502C307.612 129.339 318.067 136.215 327.068 145.216C336.048 154.218 342.924 164.716 347.761 176.602C352.598 188.554 355.027 201.763 355.027 216.274C355.027 230.785 352.598 243.669 347.761 255.75C342.924 267.788 336.048 278.352 327.068 287.331C318.067 296.333 307.612 303.252 295.661 308.046C291.388 309.781 287.006 311.191 282.451 312.297C274.231 314.292 265.533 315.29 256.379 315.29C247.226 315.29 238.029 314.227 229.527 312.123V387.671H282.451V358.692C288.655 357.868 295.292 356.762 302.298 355.265C307.221 353.899 312.058 352.359 316.809 350.515C335.289 343.401 351.34 333.293 364.896 320.149C378.431 306.983 388.972 291.648 396.477 274.035C404.025 256.488 407.756 237.227 407.756 216.274C407.756 195.321 404.025 176.082 396.477 158.513Z" fill="white"/>
</svg>
