<svg width="166" height="31" viewBox="0 0 166 31" fill="none" xmlns="http://www.w3.org/2000/svg">
<path d="M25.7879 0.525146H4.26213C1.90823 0.525146 0 2.43337 0 4.78728V26.3131C0 28.667 1.90823 30.5752 4.26213 30.5752H25.7879C28.1418 30.5752 30.05 28.667 30.05 26.3131V4.78728C30.05 2.43337 28.1418 0.525146 25.7879 0.525146Z" fill="white"/>
<path d="M19.685 23.2832H16.5775V26.3894H19.685V23.2832Z" fill="#161616"/>
<path d="M23.2698 9.8285C22.8294 8.79861 22.2107 7.89602 21.4163 7.12329C20.6207 6.35056 19.6786 5.75732 18.594 5.33976C17.5068 4.92221 16.3254 4.71216 15.0473 4.71216C14.8322 4.71216 14.6196 4.71853 14.4108 4.73126C13.3631 4.78982 12.3879 4.99732 11.4815 5.35123C10.3943 5.77769 9.44848 6.37602 8.64519 7.1462C7.84191 7.91767 7.21939 8.81516 6.78019 9.83996C6.33717 10.8648 6.11821 11.9901 6.11821 13.2186C6.11821 14.4471 6.33717 15.5559 6.78019 16.5858C7.21939 17.6169 7.84191 18.5195 8.64519 19.2923C9.44848 20.0637 10.3969 20.6608 11.493 21.086C11.9258 21.254 12.3726 21.3877 12.8348 21.4882V18.6481C12.7966 18.6341 12.7596 18.6201 12.7227 18.6048C12.0035 18.3235 11.3873 17.9174 10.8654 17.3891C10.346 16.862 9.93733 16.2421 9.63944 15.5355C9.33773 14.8264 9.19005 14.0537 9.19005 13.2186C9.19005 12.3835 9.33773 11.5917 9.63944 10.8902C9.93733 10.1926 10.346 9.57643 10.8654 9.04812C11.3873 8.51981 12.0035 8.11626 12.7227 7.83237C13.2523 7.62232 13.815 7.48993 14.4108 7.43646C14.6183 7.41737 14.8309 7.40718 15.0473 7.40718C15.8824 7.40718 16.6513 7.54849 17.3528 7.83237C18.0542 8.11626 18.6678 8.51981 19.1961 9.04812C19.7232 9.57643 20.1267 10.1926 20.4106 10.8902C20.6945 11.5917 20.8371 12.3669 20.8371 13.2186C20.8371 14.0703 20.6945 14.8264 20.4106 15.5355C20.1267 16.2421 19.7232 16.862 19.1961 17.3891C18.6678 17.9174 18.0542 18.3235 17.3528 18.6048C17.102 18.7067 16.8448 18.7894 16.5775 18.8543C16.095 18.9715 15.5845 19.03 15.0473 19.03C14.5101 19.03 13.9703 18.9676 13.4713 18.8441V23.2781H16.5775V21.5774C16.9416 21.529 17.3311 21.4641 17.7423 21.3762C18.0313 21.296 18.3152 21.2056 18.594 21.0974C19.6786 20.6799 20.6207 20.0866 21.4163 19.3152C22.2107 18.5424 22.8294 17.6424 23.2698 16.6087C23.7129 15.5788 23.9318 14.4483 23.9318 13.2186C23.9318 11.9888 23.7129 10.8597 23.2698 9.8285Z" fill="#161616"/>
<path d="M156.788 21.9557V8.38571H151.452V5.85571H165.114V8.38571H159.778V21.9557H156.788Z" fill="white"/>
<path d="M144.272 22.1857C143.015 22.1857 141.811 22.0094 140.661 21.6567C139.511 21.2887 138.599 20.8211 137.924 20.2537L138.959 17.9307C139.603 18.4367 140.401 18.8584 141.352 19.1957C142.302 19.5331 143.276 19.7017 144.272 19.7017C145.116 19.7017 145.798 19.6097 146.319 19.4257C146.841 19.2417 147.224 18.9964 147.469 18.6897C147.715 18.3677 147.838 18.0074 147.838 17.6087C147.838 17.1181 147.661 16.7271 147.309 16.4357C146.956 16.1291 146.496 15.8914 145.928 15.7227C145.376 15.5387 144.755 15.3701 144.065 15.2167C143.391 15.0634 142.709 14.8871 142.019 14.6877C141.344 14.4731 140.723 14.2047 140.156 13.8827C139.604 13.5454 139.151 13.1007 138.799 12.5487C138.446 11.9967 138.27 11.2914 138.27 10.4327C138.27 9.55873 138.499 8.7614 138.959 8.04073C139.435 7.30473 140.148 6.72207 141.099 6.29273C142.065 5.84807 143.284 5.62573 144.756 5.62573C145.722 5.62573 146.68 5.7484 147.631 5.99373C148.581 6.23907 149.409 6.59173 150.115 7.05173L149.172 9.37473C148.451 8.9454 147.707 8.63107 146.94 8.43173C146.174 8.21707 145.438 8.10973 144.732 8.10973C143.904 8.10973 143.23 8.2094 142.708 8.40873C142.202 8.60807 141.827 8.86873 141.581 9.19073C141.351 9.51273 141.236 9.88073 141.236 10.2947C141.236 10.7854 141.405 11.1841 141.743 11.4907C142.095 11.7821 142.548 12.0121 143.1 12.1807C143.667 12.3494 144.295 12.5181 144.985 12.6867C145.675 12.8401 146.358 13.0164 147.033 13.2157C147.723 13.4151 148.344 13.6757 148.896 13.9977C149.463 14.3197 149.915 14.7567 150.253 15.3087C150.605 15.8607 150.782 16.5584 150.782 17.4017C150.782 18.2604 150.544 19.0577 150.068 19.7937C149.608 20.5144 148.895 21.0971 147.929 21.5417C146.963 21.9711 145.744 22.1857 144.272 22.1857Z" fill="white"/>
<path d="M126.633 12.5487H134.637V15.0097H126.633V12.5487ZM126.863 19.4487H135.948V21.9557H123.873V5.85571H135.626V8.36271H126.863V19.4487Z" fill="white"/>
<path d="M112.648 22.1857C110.44 22.1857 108.707 21.5647 107.45 20.3227C106.208 19.0807 105.587 17.2867 105.587 14.9407V5.85571H108.577V14.8257C108.577 16.4817 108.93 17.6854 109.635 18.4367C110.356 19.188 111.368 19.5637 112.671 19.5637C113.974 19.5637 114.979 19.188 115.684 18.4367C116.389 17.6854 116.742 16.4817 116.742 14.8257V5.85571H119.686V14.9407C119.686 17.2867 119.057 19.0807 117.8 20.3227C116.558 21.5647 114.841 22.1857 112.648 22.1857Z" fill="white"/>
<path d="M93.9075 22.1857C92.6502 22.1857 91.4925 21.9787 90.4345 21.5647C89.3765 21.1507 88.4565 20.5757 87.6745 19.8397C86.8925 19.0884 86.2869 18.2144 85.8575 17.2177C85.4282 16.2057 85.2135 15.1017 85.2135 13.9057C85.2135 12.7097 85.4282 11.6134 85.8575 10.6167C86.2869 9.60473 86.8925 8.73073 87.6745 7.99473C88.4565 7.2434 89.3765 6.66073 90.4345 6.24673C91.4925 5.83273 92.6425 5.62573 93.8845 5.62573C95.1419 5.62573 96.2919 5.83273 97.3345 6.24673C98.3925 6.66073 99.3125 7.23573 100.095 7.97173C100.877 8.70773 101.482 9.58173 101.912 10.5937C102.341 11.6057 102.556 12.7097 102.556 13.9057C102.556 15.1017 102.341 16.2057 101.912 17.2177C101.482 18.2297 100.877 19.1037 100.095 19.8397C99.3125 20.5757 98.3925 21.1507 97.3345 21.5647C96.2919 21.9787 95.1495 22.1857 93.9075 22.1857ZM99.1515 25.4747C98.5842 25.4747 98.0322 25.4057 97.4955 25.2677C96.9742 25.1451 96.4529 24.9304 95.9315 24.6237C95.4255 24.3324 94.8965 23.9414 94.3445 23.4507C93.7925 22.9754 93.1869 22.3851 92.5275 21.6797L95.7015 20.8517C96.1309 21.4191 96.5372 21.8714 96.9205 22.2087C97.3192 22.5614 97.7025 22.8144 98.0705 22.9677C98.4385 23.1211 98.8219 23.1977 99.2205 23.1977C100.279 23.1977 101.199 22.7684 101.981 21.9097L103.361 23.5657C102.287 24.8384 100.884 25.4747 99.1515 25.4747ZM93.8845 19.5637C94.6972 19.5637 95.4485 19.4257 96.1385 19.1497C96.8285 18.8737 97.4265 18.4827 97.9325 17.9767C98.4385 17.4554 98.8295 16.8497 99.1055 16.1597C99.3969 15.4697 99.5425 14.7184 99.5425 13.9057C99.5425 13.0777 99.3969 12.3264 99.1055 11.6517C98.8295 10.9617 98.4385 10.3637 97.9325 9.85773C97.4265 9.3364 96.8285 8.93773 96.1385 8.66173C95.4485 8.38573 94.6972 8.24773 93.8845 8.24773C93.0719 8.24773 92.3205 8.38573 91.6305 8.66173C90.9405 8.93773 90.3425 9.3364 89.8365 9.85773C89.3305 10.3637 88.9319 10.9617 88.6405 11.6517C88.3645 12.3264 88.2265 13.0777 88.2265 13.9057C88.2265 14.7184 88.3645 15.4697 88.6405 16.1597C88.9319 16.8497 89.3305 17.4554 89.8365 17.9767C90.3425 18.4827 90.9405 18.8737 91.6305 19.1497C92.3205 19.4257 93.0719 19.5637 93.8845 19.5637Z" fill="white"/>
<path d="M67.3616 21.9557V5.85571H74.3996C76.1476 5.85571 77.6809 6.19305 78.9996 6.86771C80.3182 7.54238 81.3456 8.47771 82.0816 9.67371C82.8176 10.8697 83.1856 12.2804 83.1856 13.9057C83.1856 15.5157 82.8176 16.9264 82.0816 18.1377C81.3456 19.3337 80.3182 20.269 78.9996 20.9437C77.6809 21.6184 76.1476 21.9557 74.3996 21.9557H67.3616ZM70.3516 19.4257H74.2616C75.4729 19.4257 76.5156 19.1957 77.3896 18.7357C78.2789 18.2757 78.9612 17.6317 79.4366 16.8037C79.9272 15.9757 80.1726 15.0097 80.1726 13.9057C80.1726 12.7864 79.9272 11.8204 79.4366 11.0077C78.9612 10.1797 78.2789 9.53571 77.3896 9.07571C76.5156 8.61571 75.4729 8.38571 74.2616 8.38571H70.3516V19.4257Z" fill="white"/>
<path d="M60.0168 21.9557V5.85571H63.0068V21.9557H60.0168Z" fill="white"/>
<path d="M38.05 21.9557V5.85571H40.511L47.549 17.6087H46.261L53.184 5.85571H55.645L55.668 21.9557H52.839L52.816 10.2947H53.414L47.526 20.1157H46.192L40.212 10.2947H40.902V21.9557H38.05Z" fill="white"/>
</svg>
