<svg width="167" height="31" viewBox="0 0 167 31" fill="none" xmlns="http://www.w3.org/2000/svg">
<path d="M26.7629 0H5.23711C2.8832 0 0.974976 1.90823 0.974976 4.26213V25.7879C0.974976 28.1418 2.8832 30.05 5.23711 30.05H26.7629C29.1168 30.05 31.025 28.1418 31.025 25.7879V4.26213C31.025 1.90823 29.1168 0 26.7629 0Z" fill="#161616"/>
<path d="M20.66 22.7581H17.5525V25.8643H20.66V22.7581Z" fill="white"/>
<path d="M24.2448 9.30334C23.8043 8.27345 23.1857 7.37087 22.3913 6.59814C21.5956 5.8254 20.6536 5.23217 19.5689 4.81461C18.4818 4.39705 17.3004 4.187 16.0223 4.187C15.8071 4.187 15.5945 4.19337 15.3858 4.2061C14.338 4.26466 13.3629 4.47217 12.4565 4.82607C11.3693 5.25254 10.4235 5.85086 9.62017 6.62105C8.81688 7.39251 8.19436 8.29001 7.75517 9.3148C7.31215 10.3396 7.09319 11.465 7.09319 12.6934C7.09319 13.9219 7.31215 15.0307 7.75517 16.0606C8.19436 17.0918 8.81688 17.9944 9.62017 18.7671C10.4235 19.5386 11.3719 20.1356 12.468 20.5608C12.9008 20.7289 13.3476 20.8625 13.8097 20.9631V18.1229C13.7715 18.1089 13.7346 18.0949 13.6977 18.0797C12.9784 17.7983 12.3623 17.3922 11.8403 16.8639C11.3209 16.3369 10.9123 15.7169 10.6144 15.0104C10.3127 14.3013 10.165 13.5286 10.165 12.6934C10.165 11.8583 10.3127 11.0665 10.6144 10.3651C10.9123 9.66743 11.3209 9.05128 11.8403 8.52297C12.3623 7.99466 12.9784 7.59111 13.6977 7.30722C14.2273 7.09717 14.79 6.96477 15.3858 6.91131C15.5933 6.89221 15.8059 6.88202 16.0223 6.88202C16.8574 6.88202 17.6263 7.02333 18.3277 7.30722C19.0292 7.59111 19.6428 7.99466 20.1711 8.52297C20.6981 9.05128 21.1017 9.66743 21.3856 10.3651C21.6695 11.0665 21.812 11.8418 21.812 12.6934C21.812 13.5451 21.6695 14.3013 21.3856 15.0104C21.1017 15.7169 20.6981 16.3369 20.1711 16.8639C19.6428 17.3922 19.0292 17.7983 18.3277 18.0797C18.077 18.1815 17.8198 18.2643 17.5525 18.3292C17.07 18.4463 16.5595 18.5049 16.0223 18.5049C15.485 18.5049 14.9453 18.4425 14.4462 18.319V22.753H17.5525V21.0522C17.9166 21.0038 18.3061 20.9389 18.7173 20.8511C19.0063 20.7709 19.2902 20.6805 19.5689 20.5723C20.6536 20.1547 21.5956 19.5615 22.3913 18.79C23.1857 18.0173 23.8043 17.1172 24.2448 16.0835C24.6878 15.0537 24.9068 13.9232 24.9068 12.6934C24.9068 11.4637 24.6878 10.3345 24.2448 9.30334Z" fill="white"/>
<path d="M157.763 21.4305V7.86052H152.427V5.33052H166.089V7.86052H160.753V21.4305H157.763Z" fill="#161616"/>
<path d="M145.247 21.6605C143.99 21.6605 142.786 21.4842 141.636 21.1315C140.486 20.7635 139.574 20.2959 138.899 19.7285L139.934 17.4055C140.578 17.9115 141.376 18.3332 142.326 18.6705C143.277 19.0079 144.251 19.1765 145.247 19.1765C146.091 19.1765 146.773 19.0845 147.294 18.9005C147.816 18.7165 148.199 18.4712 148.444 18.1645C148.69 17.8425 148.812 17.4822 148.812 17.0835C148.812 16.5929 148.636 16.2019 148.283 15.9105C147.931 15.6039 147.471 15.3662 146.903 15.1975C146.351 15.0135 145.73 14.8449 145.04 14.6915C144.366 14.5382 143.683 14.3619 142.993 14.1625C142.319 13.9479 141.698 13.6795 141.13 13.3575C140.578 13.0202 140.126 12.5755 139.773 12.0235C139.421 11.4715 139.244 10.7662 139.244 9.90752C139.244 9.03352 139.474 8.23619 139.934 7.51552C140.41 6.77952 141.123 6.19685 142.073 5.76752C143.039 5.32285 144.258 5.10052 145.73 5.10052C146.696 5.10052 147.655 5.22319 148.605 5.46852C149.556 5.71385 150.384 6.06652 151.089 6.52652L150.146 8.84952C149.426 8.42019 148.682 8.10585 147.915 7.90652C147.149 7.69185 146.413 7.58452 145.707 7.58452C144.879 7.58452 144.205 7.68419 143.683 7.88352C143.177 8.08285 142.802 8.34352 142.556 8.66552C142.326 8.98752 142.211 9.35552 142.211 9.76952C142.211 10.2602 142.38 10.6589 142.717 10.9655C143.07 11.2569 143.522 11.4869 144.074 11.6555C144.642 11.8242 145.27 11.9929 145.96 12.1615C146.65 12.3149 147.333 12.4912 148.007 12.6905C148.697 12.8899 149.318 13.1505 149.87 13.4725C150.438 13.7945 150.89 14.2315 151.227 14.7835C151.58 15.3355 151.756 16.0332 151.756 16.8765C151.756 17.7352 151.519 18.5325 151.043 19.2685C150.583 19.9892 149.87 20.5719 148.904 21.0165C147.938 21.4459 146.719 21.6605 145.247 21.6605Z" fill="#161616"/>
<path d="M127.608 12.0235H135.612V14.4845H127.608V12.0235ZM127.838 18.9235H136.923V21.4305H124.848V5.33052H136.601V7.83752H127.838V18.9235Z" fill="#161616"/>
<path d="M113.623 21.6605C111.415 21.6605 109.682 21.0395 108.425 19.7975C107.183 18.5555 106.562 16.7615 106.562 14.4155V5.33052H109.552V14.3005C109.552 15.9565 109.904 17.1602 110.61 17.9115C111.33 18.6629 112.342 19.0385 113.646 19.0385C114.949 19.0385 115.953 18.6629 116.659 17.9115C117.364 17.1602 117.717 15.9565 117.717 14.3005V5.33052H120.661V14.4155C120.661 16.7615 120.032 18.5555 118.775 19.7975C117.533 21.0395 115.815 21.6605 113.623 21.6605Z" fill="#161616"/>
<path d="M94.8825 21.6605C93.6252 21.6605 92.4675 21.4535 91.4095 21.0395C90.3515 20.6255 89.4315 20.0505 88.6495 19.3145C87.8675 18.5632 87.2618 17.6892 86.8325 16.6925C86.4032 15.6805 86.1885 14.5765 86.1885 13.3805C86.1885 12.1845 86.4032 11.0882 86.8325 10.0915C87.2618 9.07952 87.8675 8.20552 88.6495 7.46952C89.4315 6.71819 90.3515 6.13552 91.4095 5.72152C92.4675 5.30752 93.6175 5.10052 94.8595 5.10052C96.1168 5.10052 97.2668 5.30752 98.3095 5.72152C99.3675 6.13552 100.288 6.71052 101.07 7.44652C101.852 8.18252 102.457 9.05652 102.887 10.0685C103.316 11.0805 103.531 12.1845 103.531 13.3805C103.531 14.5765 103.316 15.6805 102.887 16.6925C102.457 17.7045 101.852 18.5785 101.07 19.3145C100.288 20.0505 99.3675 20.6255 98.3095 21.0395C97.2668 21.4535 96.1245 21.6605 94.8825 21.6605ZM100.127 24.9495C99.5592 24.9495 99.0072 24.8805 98.4705 24.7425C97.9492 24.6199 97.4278 24.4052 96.9065 24.0985C96.4005 23.8072 95.8715 23.4162 95.3195 22.9255C94.7675 22.4502 94.1618 21.8599 93.5025 21.1545L96.6765 20.3265C97.1058 20.8939 97.5122 21.3462 97.8955 21.6835C98.2942 22.0362 98.6775 22.2892 99.0455 22.4425C99.4135 22.5959 99.7968 22.6725 100.196 22.6725C101.254 22.6725 102.174 22.2432 102.956 21.3845L104.336 23.0405C103.262 24.3132 101.859 24.9495 100.127 24.9495ZM94.8595 19.0385C95.6722 19.0385 96.4235 18.9005 97.1135 18.6245C97.8035 18.3485 98.4015 17.9575 98.9075 17.4515C99.4135 16.9302 99.8045 16.3245 100.081 15.6345C100.372 14.9445 100.518 14.1932 100.518 13.3805C100.518 12.5525 100.372 11.8012 100.081 11.1265C99.8045 10.4365 99.4135 9.83852 98.9075 9.33252C98.4015 8.81119 97.8035 8.41252 97.1135 8.13652C96.4235 7.86052 95.6722 7.72252 94.8595 7.72252C94.0468 7.72252 93.2955 7.86052 92.6055 8.13652C91.9155 8.41252 91.3175 8.81119 90.8115 9.33252C90.3055 9.83852 89.9068 10.4365 89.6155 11.1265C89.3395 11.8012 89.2015 12.5525 89.2015 13.3805C89.2015 14.1932 89.3395 14.9445 89.6155 15.6345C89.9068 16.3245 90.3055 16.9302 90.8115 17.4515C91.3175 17.9575 91.9155 18.3485 92.6055 18.6245C93.2955 18.9005 94.0468 19.0385 94.8595 19.0385Z" fill="#161616"/>
<path d="M68.3365 21.4305V5.33052H75.3745C77.1225 5.33052 78.6559 5.66785 79.9745 6.34252C81.2932 7.01719 82.3205 7.95252 83.0565 9.14852C83.7925 10.3445 84.1605 11.7552 84.1605 13.3805C84.1605 14.9905 83.7925 16.4012 83.0565 17.6125C82.3205 18.8085 81.2932 19.7439 79.9745 20.4185C78.6559 21.0932 77.1225 21.4305 75.3745 21.4305H68.3365ZM71.3265 18.9005H75.2365C76.4479 18.9005 77.4905 18.6705 78.3645 18.2105C79.2539 17.7505 79.9362 17.1065 80.4115 16.2785C80.9022 15.4505 81.1475 14.4845 81.1475 13.3805C81.1475 12.2612 80.9022 11.2952 80.4115 10.4825C79.9362 9.65452 79.2539 9.01052 78.3645 8.55052C77.4905 8.09052 76.4479 7.86052 75.2365 7.86052H71.3265V18.9005Z" fill="#161616"/>
<path d="M60.9918 21.4305V5.33052H63.9818V21.4305H60.9918Z" fill="#161616"/>
<path d="M39.025 21.4305V5.33052H41.486L48.524 17.0835H47.236L54.159 5.33052H56.62L56.643 21.4305H53.814L53.791 9.76952H54.389L48.501 19.5905H47.167L41.187 9.76952H41.877V21.4305H39.025Z" fill="#161616"/>
</svg>
